<svg xmlns="http://www.w3.org/2000/svg" xmlns:xlink="http://www.w3.org/1999/xlink" viewBox="0 0 128 128">
  <defs>
    <style>
      .cls-1 {
        fill: url(#linear-gradient);
      }

      .cls-2 {
        fill: url(#linear-gradient-2);
      }

      .cls-3 {
        fill: url(#linear-gradient-3);
      }
    </style>
    <linearGradient id="linear-gradient" x1="118.4" y1="66.06" x2="76.34" y2="107.97" gradientUnits="userSpaceOnUse">
      <stop offset="0" stop-color="#36098a"/>
      <stop offset="1" stop-color="#5b13df"/>
    </linearGradient>
    <linearGradient id="linear-gradient-2" x1="34.14" y1="16.13" x2="125.22" y2="44.62" xlink:href="#linear-gradient"/>
    <linearGradient id="linear-gradient-3" x1="19.9" y1="48.59" x2="83.41" y2="117.73" gradientUnits="userSpaceOnUse">
      <stop offset="0" stop-color="#5b13df"/>
      <stop offset="0.24" stop-color="#5110c7"/>
      <stop offset="0.75" stop-color="#3d0b9b"/>
      <stop offset="1" stop-color="#36098a"/>
    </linearGradient>
  </defs>
  <g id="Layer_2" data-name="Layer 2">
    <g id="Layer_1-2" data-name="Layer 1">
      <g>
        <path class="cls-1" d="M92.64,82.58c-5.63,9.61-13.51,17.5-24,24l.24.13.91.48.4.21.84.43q.85.45,1.71.87l.53.25,1.2.58.67.3,1.08.49.72.3,1,.45.76.3,1,.41.79.3,1,.38.8.28,1,.35c.27.1.54.18.82.27l1,.33L86,114l1,.3.85.24,1,.28.88.23,1,.25.89.22,1,.23.9.19,1,.21.92.18,1,.19.92.16,1,.16.94.15.58.08A63.88,63.88,0,0,0,128,64a64.93,64.93,0,0,0-.53-8.25c-7-1.71-14-3.7-20.83-5.93L102,48.31c0,1.27-.09,2.54-.19,3.79A69.75,69.75,0,0,1,92.64,82.58Z"/>
        <path class="cls-2" d="M126.59,50.58A64.08,64.08,0,0,0,44.38,3.06a88.78,88.78,0,0,0-7.6,14.81A82.87,82.87,0,0,0,31.24,43.3c0,.15,0,.3,0,.45,5.45-2.06,10.85-4.37,16.08-6.91a193.42,193.42,0,0,0,18-9.93l1.22-.76,1.21.79A149.63,149.63,0,0,0,89.4,38.69c2.87,1.26,5.49,2.29,8,3.23,3.53,1.3,6.91,2.4,10.58,3.59,6.17,2,12.42,3.81,18.65,5.39C126.64,50.79,126.61,50.68,126.59,50.58Z"/>
        <path class="cls-3" d="M36,82.72a67.75,67.75,0,0,1-9.09-30.47,78.38,78.38,0,0,1-.17-9.36c0-.5.08-1.73.21-3.18a82.35,82.35,0,0,1,5.61-23.42l.12-.31A86.25,86.25,0,0,1,37.5,5.73,64.47,64.47,0,0,0,5.86,37.21a64,64,0,0,0,88,83.39l-.11,0c-.94-.19-1.87-.39-2.81-.61l-.58-.14c-.94-.22-1.88-.46-2.81-.71l-.5-.14q-1.35-.37-2.67-.78l-.27-.08c-.93-.29-1.86-.6-2.79-.92l-.56-.2c-.92-.33-1.84-.66-2.74-1l-.31-.12c-.85-.33-1.7-.68-2.54-1l-.45-.19c-.88-.39-1.76-.79-2.63-1.2l-.54-.25c-.89-.43-1.78-.87-2.66-1.32-1.66-.87-3.74-2-6-3.23l-3.47-2,.09-.05A67.85,67.85,0,0,1,36,82.72Z"/>
      </g>
    </g>
  </g>
</svg>
