<?xml version="1.0" encoding="UTF-8"?><svg id="Layer_2" xmlns="http://www.w3.org/2000/svg" viewBox="0 0 3631.9 3631.9"><defs><style>.cls-1{fill:#5b13df;}.cls-1,.cls-2,.cls-3,.cls-4,.cls-5,.cls-6{fill-rule:evenodd;stroke-width:0px;}.cls-2{fill:#d2fa8f;}.cls-3{fill:#cbaaff;}.cls-4{fill:#ffbecb;}.cls-5{fill:#fff;}.cls-6{fill:#9ef0f0;}</style></defs><g id="Layer_1-2"><path class="cls-1" d="m3362,3631.9H269.9c-149,0-269.9-120.8-269.9-269.9V269.9C0,120.9,120.8,0,269.9,0h3092.1c149,0,269.9,120.8,269.9,269.9v3092.1c-.1,149.1-120.9,269.9-269.9,269.9Z"/><path class="cls-3" d="m1989.4,1222.3l-2.5-672.5c-16.3-87.9-89.2-153.2-174.1-159.1-94-6.5-182.2,61.3-200.9,159.1.8,224.2,1.7,448.3,2.5,672.5,62.5,85.8,125,171.7,187.5,257.5,62.5-85.8,125-171.7,187.5-257.5Zm-375,1152.5v675c-2,104.3,82.8,191.1,186.1,191.9,104.4.8,190.9-86.5,188.9-191.9v-675c-62.5-85.8-125-171.7-187.5-257.5-62.5,85.8-125,171.7-187.5,257.5Z"/><path class="cls-6" d="m1989.4,2374.8l395,545c67.8,87.8,194.4,100.1,272.9,33.8,71.3-60.2,86.7-171.3,29.6-253.8-131.7-181.7-263.3-363.3-395-545-100.8-32.5-201.7-65-302.5-97.5v317.5Zm-375-1152.5l-397.5-545c-63-73.3-171-87.7-248.5-35.5-81.7,55-106.9,168.5-54,255.5,131.7,181.7,263.3,363.3,395,545,101.7,32.5,203.3,65,305,97.5v-317.5Z"/><path class="cls-4" d="m1309.4,1442.3l-640-207.5c-93.3-21.6-187.7,28.6-220.5,113.6-35.5,91.9,10,200.8,105.5,241.4,213.3,70,426.7,140,640,210,100.8-33.3,201.7-66.7,302.5-100-62.5-85.8-125-171.7-187.5-257.5Zm795,455c62.5,85.8,125,171.7,187.5,257.5l640,207.5c97.9,29.4,202.3-26.1,232.6-122.7,29.9-95.3-22.3-199.3-117.6-232.3-213.3-69.2-426.7-138.3-640-207.5-100.8,32.5-201.6,65-302.5,97.5Z"/><path class="cls-5" d="m2420.1,1801.6l640-210c107-34.4,160.9-152.1,122.5-248.8-35.3-88.8-139.9-138.5-237.5-106.2-213.3,69.2-426.7,138.3-640,207.5-62.5,85.8-125,171.7-187.5,257.5,100.9,33.3,201.7,66.7,302.5,100Zm-1212.5,0l-640,207.5c-98.9,42.3-143.9,155.6-105.5,247.1,34.2,81.7,127.8,129.5,220.5,107.9,213.3-69.2,426.7-138.3,640-207.5,62.5-85.8,125-171.7,187.5-257.5-100.8-32.5-201.6-65-302.5-97.5Z"/><path class="cls-2" d="m1309.4,2154.8l-395,545c-63.4,88.3-39.7,211.6,46.6,268.6,81.2,53.6,195.5,33.7,255.9-48.6,132.5-181.7,265-363.3,397.5-545v-317.5c-101.6,32.5-203.3,65-305,97.5Zm982.5-712.5l395-545c51.7-81,39.5-184.4-22.2-243.2-73.4-70-204.3-65.3-280.3,23.2-131.7,181.7-263.3,363.3-395,545v317.5c100.9-32.5,201.7-65,302.5-97.5Z"/></g></svg>