<?xml version="1.0" encoding="UTF-8"?>
<svg width="100%" height="100%" viewBox="0 0 13 13" version="1.1" xmlns="http://www.w3.org/2000/svg" xmlns:xlink="http://www.w3.org/1999/xlink">
    <title>copy-link-icon-round</title>
    <g id="data-tables-" stroke="none" stroke-width="1" fill="none" fill-rule="evenodd">
        <g id="copy-link-icon-round" fill="currentColor" fill-rule="nonzero">
            <path d="M1.36171277,0 C0.609351064,0 0,0.609351064 0,1.36171277 L0,8.8936383 L1.36171277,8.8936383 L1.36171277,1.36171277 L9.53192553,1.36171277 L9.53192553,0 L1.36171277,0 Z" id="Path"></path>
            <path d="M11.5744787,2.72339362 L4.08510638,2.72339362 C3.3327766,2.72339362 2.72339362,3.33274468 2.72339362,4.08510638 L2.72339362,11.6170319 C2.72339362,12.3693617 3.33274468,12.9787447 4.08510638,12.9787447 L11.5744787,12.9787447 C12.3268085,12.9787447 12.9361915,12.3693936 12.9361915,11.6170319 L12.9361915,4.08510638 C12.9361915,3.3327766 12.3268085,2.72339362 11.5744787,2.72339362 Z M4.08510638,11.6170319 L4.08510638,4.08510638 L11.5744787,4.08510638 L11.5744787,11.6170319 L4.08510638,11.6170319 Z" id="Shape"></path>
        </g>
    </g>
</svg>