<?xml version="1.0" encoding="UTF-8"?><svg id="Layer_1" xmlns="http://www.w3.org/2000/svg" viewBox="0 0 103.98 117.61"><defs><style>.cls-1{stroke:#a579f6;stroke-linecap:round;stroke-width:6px;}.cls-1,.cls-2{fill:none;}.cls-3{fill:#cbaaff;fill-rule:evenodd;}.cls-3,.cls-4{stroke-width:0px;}.cls-2{stroke:#d2fa8f;stroke-width:3px;}.cls-4{fill:#5b13df;}</style></defs><g id="Page-1"><g id="Group-22"><g id="Group-21"><path id="Path-2" class="cls-1" d="m40.19,55.04v-15.75c.75-7.5,4.88-11.25,12.38-11.25,6.75,0,10.5,4.12,11.25,12.38v14.62h-23.62Z"/><path id="Rectangle" class="cls-3" d="m38.5,48.04h27c4.97,0,9,4.03,9,9v16c0,8.84-7.16,16-16,16h-13c-8.84,0-16-7.16-16-16v-16c0-4.97,4.03-9,9-9Z"/><circle id="Oval" class="cls-4" cx="52.5" cy="66.04" r="6"/><rect id="Rectangle-2" class="cls-4" x="49.5" y="66.04" width="6" height="11" rx="2" ry="2"/></g><path id="Path-3" class="cls-2" d="m3.14,18.75c12.22-2.2,21-4.1,26.36-5.71,5.35-1.61,12.3-5.34,20.84-11.2h0c.7-.48,1.62-.46,2.3.03,7.14,5.19,14.09,8.91,20.86,11.16,6.78,2.26,15.87,4.18,27.25,5.76h0c1,.14,1.74,1,1.72,2.01-.42,26.48-2.74,44.56-6.98,54.23-14,32-44,41-44,41,0,0-27-8-43-41C3.88,65.51,1.55,47.41,1.5,20.72h0c0-.97.69-1.8,1.64-1.97h0Z"/></g></g></svg>