<?xml version="1.0" encoding="UTF-8"?><svg id="Layer_1" xmlns="http://www.w3.org/2000/svg" viewBox="0 0 292.75 215"><defs><style>.cls-1{stroke:#ffbecb;stroke-width:5px;}.cls-1,.cls-2{fill:none;}.cls-3{fill:#702eea;}.cls-3,.cls-4,.cls-5,.cls-6{fill-rule:evenodd;}.cls-3,.cls-4,.cls-5,.cls-6,.cls-7{stroke-width:0px;}.cls-4{fill:#a87bfa;}.cls-5{fill:#c8aaff;}.cls-6{fill:#b895f9;}.cls-2{stroke:#c8aaff;stroke-linejoin:round;stroke-width:11px;}.cls-7{fill:#7a37f5;}.cls-8{fill:#9ef0f0;isolation:isolate;opacity:.8;stroke:#3ca9a9;stroke-width:4px;}</style></defs><g id="Page-1"><g id="Group-20"><path id="Rectangle" class="cls-3" d="m207.16,123c5.57,6.67,10.69,10.67,15.36,12,3.66,0,10.39-6.1,17-6,5.06.08,9.69,5.7,15,4,2.47-.79,6.03-4.13,10.66-10v75.41c0,1.1-.9,2-2,2-.37,0-.74-.1-1.05-.3l-23.69-14.69c-.62-.39-1.41-.4-2.04-.04l-26.25,14.92c-.96.55-2.18.21-2.73-.75-.17-.3-.26-.64-.26-.99v-75.56h0Z"/><polygon id="Rectangle-2" class="cls-4" points="79.24 73.77 98.83 73.77 108.05 154.73 71.17 154.73 79.24 73.77"/><path id="Rectangle-3" class="cls-6" d="m62.78,152.03h55.47c3.31,0,6,2.69,6,6v4.79H56.78v-4.79c0-3.31,2.69-6,6-6Z"/><rect id="Rectangle-Copy-140" class="cls-7" x="27.99" y="161.03" width="125.04" height="53.97" rx="4" ry="4"/><path id="Rectangle-4" class="cls-5" d="m39.19,0h101.75c2.21,0,4,1.79,4,4v57.17c0,30.31-24.57,54.87-54.87,54.87s-54.87-24.57-54.87-54.87V4c0-2.21,1.79-4,4-4Z"/><path id="Path-14" class="cls-2" d="m132.34,17.5l43.18-5.8c-2.21,19.34-5.54,34.26-9.96,44.76-6.64,15.75-29.06,29.01-29.06,29.01,0,0-1.38-22.65-4.15-67.96Z"/><path id="Path-14-Copy" class="cls-2" d="m48.68,17.5L5.5,11.69c2.21,19.34,5.54,34.26,9.96,44.76,6.64,15.75,29.06,29.01,29.06,29.01,0,0,1.38-22.65,4.15-67.96Z"/><path id="Path-13" class="cls-1" d="m221.99,26.96c4.01-1.28,6.39.19,9.25,2.36,1.74,1.32,3.75,2.92,7.37,3.16,3.42.23,5.21-.98,6.79-2,2.76-1.78,5.08-3.14,9.7-1.2,4.55,1.91,5.86,4.9,7.16,8.26.72,1.87,1.43,3.9,3.55,5.65,2.09,1.72,4.04,1.91,5.84,2.16,3.31.45,6.3.96,9.19,5.11,2.83,4.06,2.31,7.58,1.55,11.41-.44,2.2-.98,4.53-.1,7.29.8,2.51,2.15,3.39,3.35,4.22l.31.22c2.31,1.61,4.3,3.21,4.3,8.72,0,4.78-2.04,7.66-4.45,10.4l-.46.51-.68.76c-1.41,1.6-2.84,3.28-3.45,5.82-.66,2.75-.19,4.73.19,6.5.72,3.34,1.22,6.15-1.73,10.17-3.05,4.16-5.37,4.01-8.29,3.81-1.51-.1-3.29-.25-5.86,1.35-2.74,1.69-3.7,3.61-4.59,5.29-1.5,2.84-2.86,5.16-7.32,6.28-4.38,1.1-6.16-.37-8.25-2.22-1.3-1.15-2.82-2.48-6.77-2.22-4.39.28-6.89,2.3-8.97,3.91-2.95,2.28-5.34,3.68-8.67,2.77-3.49-.96-4.84-2.99-6.47-5.94-1.08-1.95-2.39-4.37-5.62-6.91-3.08-2.42-6.05-2.76-8.76-3.13-4.06-.56-7.64-1.22-10.72-5.19-3.31-4.25-2.4-7.96-1.07-12.08.75-2.32,1.67-4.81.67-7.83-1.03-3.12-2.63-4.79-4-6.27-2.34-2.51-4.16-4.65-3.97-9.28.18-4.42,2.09-6.4,4.51-8.68,1.56-1.48,3.38-3.16,4.59-6.68,1.14-3.34.44-5.77-.12-7.93-.96-3.69-1.59-6.82,1.66-10.86,3.2-3.98,6.77-3.96,10.83-3.64,2.35.19,4.93.52,7.62-1.35,2.87-2,3.99-4.21,4.99-6.13,1.56-2.98,3-5.36,6.88-6.6Z"/><circle id="Oval" class="cls-8" cx="236.17" cy="80.58" r="34.53" transform="translate(115.84 299.19) rotate(-80.01)"/></g></g></svg>