<?xml version="1.0" encoding="UTF-8"?><svg id="Layer_1" xmlns="http://www.w3.org/2000/svg" viewBox="0 0 81 81"><defs><style>.cls-1{fill:rgba(255,255,255,.08);}.cls-1,.cls-2,.cls-3,.cls-4,.cls-5{stroke-width:0px;}.cls-2{fill:#d2fa8f;}.cls-2,.cls-3,.cls-4,.cls-5{fill-rule:evenodd;}.cls-3{fill:#c8aaff;}.cls-4{fill:#ffbecb;}.cls-5{fill:#9ef0f0;}</style></defs><g id="Page-1"><g id="xlg-1312px-16-column-copy-147"><g id="Group-2-Copy"><rect id="Rectangle" class="cls-1" width="81" height="81" rx="4" ry="4"/><path id="Rectangle-2" class="cls-3" d="m11,8h59c1.66,0,3,1.34,3,3h0c0,1.66-1.34,3-3,3H11c-1.66,0-3-1.34-3-3h0c0-1.66,1.34-3,3-3Z"/><path id="Rectangle-Copy-26" class="cls-5" d="m11,28h59c1.66,0,3,1.34,3,3h0c0,1.66-1.34,3-3,3H11c-1.66,0-3-1.34-3-3h0c0-1.66,1.34-3,3-3Z"/><path id="Rectangle-Copy-27" class="cls-5" d="m11,38h59c1.66,0,3,1.34,3,3h0c0,1.66-1.34,3-3,3H11c-1.66,0-3-1.34-3-3h0c0-1.66,1.34-3,3-3Z"/><path id="Rectangle-Copy-28" class="cls-5" d="m11,48h59c1.66,0,3,1.34,3,3h0c0,1.66-1.34,3-3,3H11c-1.66,0-3-1.34-3-3h0c0-1.66,1.34-3,3-3Z"/><path id="Rectangle-Copy-24" class="cls-3" d="m11,18h33c1.66,0,3,1.34,3,3h0c0,1.66-1.34,3-3,3H11c-1.66,0-3-1.34-3-3h0c0-1.66,1.34-3,3-3Z"/><path id="Rectangle-Copy-30" class="cls-4" d="m11,58h33c1.66,0,3,1.34,3,3h0c0,1.66-1.34,3-3,3H11c-1.66,0-3-1.34-3-3h0c0-1.66,1.34-3,3-3Z"/><path id="Rectangle-Copy-25" class="cls-5" d="m54,18h16c1.66,0,3,1.34,3,3h0c0,1.66-1.34,3-3,3h-16c-1.66,0-3-1.34-3-3h0c0-1.66,1.34-3,3-3Z"/><g id="Actions-_-Toggle-_-asleep-_-24-Copy-7"><path id="Fill" class="cls-2" d="m67,70.71l-2.5-2.5.71-.71,1.79,1.79,3.79-3.79.71.71-4.5,4.5h0Zm1-9.71c-3.87,0-7,3.13-7,7s3.13,7,7,7,7-3.13,7-7c0-1.86-.74-3.64-2.05-4.95-1.31-1.31-3.09-2.05-4.95-2.05Zm0,13c-3.31,0-6-2.69-6-6s2.69-6,6-6,6,2.69,6,6c0,1.59-.63,3.12-1.76,4.24s-2.65,1.76-4.24,1.76Z"/></g></g></g></g></svg>