<?xml version="1.0" encoding="UTF-8"?>
<svg width="100%" height="100%" viewBox="0 0 15 15" version="1.1" xmlns="http://www.w3.org/2000/svg" xmlns:xlink="http://www.w3.org/1999/xlink">
    <!-- Generator: Sketch 63.1 (92452) - https://sketch.com -->
    <title>info-grey</title>
    <desc>Created with Sketch.</desc>
    <g id="Page-1" stroke="none" stroke-width="1" fill="none" fill-rule="evenodd">
        <g id="info-grey" fill="currentColor" fill-rule="nonzero">
            <path d="M7.5,0 C3.3645,0 0,3.36454545 0,7.50004545 C0,11.6355455 3.3645,15 7.5,15 C11.6355,15 15,11.6355455 15,7.50004545 C15,3.36454545 11.6355,0 7.5,0 Z M7.5,13.6363636 C4.11636364,13.6363636 1.36363636,10.8836364 1.36363636,7.50004545 C1.36363636,4.11645455 4.11636364,1.36363636 7.5,1.36363636 C10.8836364,1.36363636 13.6363636,4.11645455 13.6363636,7.50004545 C13.6363636,10.8836364 10.8835909,13.6363636 7.5,13.6363636 Z" id="Shape"></path>
            <path d="M7.49990909,3.18181818 C6.99872727,3.18181818 6.591,3.58981818 6.591,4.09131818 C6.591,4.59236364 6.99872727,5 7.49990909,5 C8.00109091,5 8.40881818,4.59236364 8.40881818,4.09131818 C8.40881818,3.58981818 8.00109091,3.18181818 7.49990909,3.18181818 Z" id="Path"></path>
            <path d="M7.5,6.36363636 C7.12345455,6.36363636 6.81818182,6.66890909 6.81818182,7.04545455 L6.81818182,11.1363636 C6.81818182,11.5129091 7.12345455,11.8181818 7.5,11.8181818 C7.87654545,11.8181818 8.18181818,11.5129091 8.18181818,11.1363636 L8.18181818,7.04545455 C8.18181818,6.66890909 7.87654545,6.36363636 7.5,6.36363636 Z" id="Path"></path>
        </g>
    </g>
</svg>